<svg xmlns="http://www.w3.org/2000/svg"  viewBox="0 0 40 40" width="40px" height="40px"><path fill="#a65a9d" d="M17,38.5c-0.426,0-0.832-0.182-1.115-0.498L1.076,21.481c-0.77-0.854-0.768-2.142,0.003-2.996	L15.884,1.969C16.15,1.671,16.558,1.5,17,1.5s0.85,0.171,1.115,0.468l14.809,16.521c0.77,0.854,0.768,2.142-0.003,2.996	L18.116,38.001C17.832,38.318,17.426,38.5,17,38.5z"/><path fill="#753271" d="M17,2c0.3,0,0.571,0.11,0.743,0.302l14.81,16.522c0.597,0.662,0.595,1.662-0.006,2.328L17.743,37.668	C17.554,37.879,17.284,38,17,38s-0.554-0.121-0.743-0.332L1.447,21.146c-0.597-0.662-0.595-1.662,0.006-2.328L16.257,2.302	C16.429,2.11,16.7,2,17,2 M17,1c-0.555,0-1.109,0.212-1.488,0.635L0.708,18.151c-0.943,1.046-0.943,2.623-0.004,3.665l14.808,16.52	C15.891,38.759,16.432,39,17,39s1.109-0.241,1.488-0.665L33.292,21.82c0.943-1.046,0.943-2.623,0.004-3.665L18.488,1.635	C18.109,1.212,17.555,1,17,1L17,1z"/><path fill="#ff92be" d="M22.998,38.5c-0.426,0-0.832-0.182-1.116-0.498l-6.75-7.522c-0.514-0.571-0.514-1.433,0-2.004	l6.323-7.047c0.73-0.814,0.73-2.043-0.001-2.858l-6.322-7.046c-0.514-0.571-0.514-1.433,0-2.004l6.75-7.522	c0.284-0.316,0.69-0.498,1.116-0.498s0.832,0.182,1.116,0.498l14.811,16.507c0.766,0.853,0.766,2.139-0.001,2.991l-14.81,16.506	C23.83,38.318,23.424,38.5,22.998,38.5z"/><path fill="#ea4c89" d="M22.998,2c0.284,0,0.555,0.121,0.744,0.332l14.811,16.507c0.595,0.662,0.594,1.661-0.001,2.323	l-14.81,16.506C23.553,37.879,23.282,38,22.998,38s-0.555-0.121-0.744-0.332l-6.75-7.523c-0.342-0.381-0.342-0.955,0-1.336	l6.323-7.047c0.901-1.005,0.901-2.52-0.001-3.526l-6.323-7.046c-0.342-0.381-0.342-0.955,0-1.336l6.75-7.523	C22.443,2.121,22.714,2,22.998,2 M22.998,1c-0.568,0-1.109,0.241-1.488,0.664l-6.75,7.522c-0.683,0.76-0.683,1.912,0,2.672	l6.322,7.046c0.561,0.625,0.561,1.566,0.001,2.19l-6.323,7.047c-0.683,0.76-0.683,1.912,0,2.672l6.75,7.522	C21.889,38.759,22.43,39,22.998,39s1.109-0.241,1.488-0.664l14.81-16.506c0.938-1.043,0.938-2.615,0.001-3.659L24.486,1.664	C24.108,1.241,23.567,1,22.998,1L22.998,1z"/><path fill="#ffb5d2" d="M31.757,28.739c-0.426,0-0.832-0.182-1.116-0.498l-6.07-6.765c-0.765-0.852-0.761-2.138,0.01-2.993	l6.047-6.739c0.284-0.316,0.69-0.498,1.116-0.498c0.426,0,0.832,0.182,1.116,0.498l6.065,6.761C39.296,18.917,39.5,19.447,39.5,20	s-0.204,1.083-0.575,1.495l-6.052,6.746C32.589,28.558,32.183,28.739,31.757,28.739z"/><path fill="#ea4c89" d="M31.743,11.746c0.284,0,0.555,0.121,0.744,0.332l6.066,6.762C38.842,19.16,39,19.572,39,20	s-0.159,0.841-0.448,1.162L32.5,27.908c-0.189,0.211-0.46,0.331-0.744,0.331s-0.555-0.121-0.744-0.332l-6.071-6.765	c-0.593-0.66-0.589-1.659,0.011-2.326L31,12.078C31.188,11.867,31.459,11.746,31.743,11.746 M31.743,10.746	c-0.568,0-1.109,0.241-1.488,0.664l-6.046,6.738c-0.942,1.046-0.947,2.62-0.011,3.662l6.07,6.765	c0.379,0.423,0.92,0.664,1.488,0.664s1.109-0.241,1.488-0.664l6.051-6.745C39.765,21.309,40,20.654,40,20s-0.234-1.308-0.703-1.829	l-6.065-6.761C32.853,10.987,32.312,10.746,31.743,10.746L31.743,10.746z"/></svg>